<?xml version="1.0" encoding="iso-8859-1"?>
<!-- Uploaded to: SVG Repo, www.svgrepo.com, Generator: SVG Repo Mixer Tools -->
<svg version="1.1" id="Layer_1" xmlns="http://www.w3.org/2000/svg" xmlns:xlink="http://www.w3.org/1999/xlink" 
	 viewBox="0 0 398.489 398.489" xml:space="preserve">
<g>
	<g>
		<path style="fill:#005FAD;" d="M0,283.067c0,12.795,10.468,23.262,23.261,23.262h290.961c12.794,0,23.262-10.467,23.262-23.262
			V80.889c0-12.793-10.468-23.262-23.262-23.262H23.261C10.468,57.627,0,68.096,0,80.889V283.067z"/>
	</g>
	<path style="fill:#0071CE;" d="M344.504,283.067c0,12.795-10.467,23.262-23.262,23.262H30.282
		c-12.794,0-23.262-10.467-23.262-23.262V80.889c0-12.793,10.468-23.262,23.262-23.262h290.96c12.795,0,23.262,10.469,23.262,23.262
		V283.067z"/>
	<g>
		<circle style="fill:#FFFFFF;" cx="175.741" cy="181.978" r="81.734"/>
		<path style="fill:#1E252B;" d="M164.226,220.535c-7.449,4.819-13.543,1.503-13.543-7.368v-62.376
			c0-8.873,6.095-12.189,13.543-7.371l46.043,29.793c7.45,4.82,7.45,12.709,0,17.527L164.226,220.535z"/>
	</g>
	<g>
		
			<rect x="270.251" y="149.124" transform="matrix(-0.7071 -0.7071 0.7071 -0.7071 329.7993 627.564)" style="fill:#1E252B;" width="49.244" height="192.709"/>
		<path style="fill:#5C6670;" d="M329.464,221.394c-2.896,2.895-7.591,2.895-10.485,0c-2.896-2.895-2.896-7.591,0-10.485
			l20.206-20.207c2.895-2.895,7.591-2.895,10.485,0c2.896,2.895,2.896,7.591,0,10.486L329.464,221.394z"/>
		<polygon style="fill:#5C6670;" points="199.509,340.862 209.345,296.205 244.167,331.024 		"/>
		
			<rect x="347.427" y="155.548" transform="matrix(-0.7071 -0.7071 0.7071 -0.7071 516.1105 550.4132)" style="fill:#5C6670;" width="49.246" height="25.537"/>
	</g>
</g>
</svg>